<?xml version="1.0" encoding="UTF-8"?>
<svg version="1.1" xmlns="http://www.w3.org/2000/svg" width="500" height="500">
<path d="M0 0 C165 0 330 0 500 0 C500 165 500 330 500 500 C335 500 170 500 0 500 C0 335 0 170 0 0 Z " fill="#FEFEFE" transform="translate(0,0)"/>
<path d="M0 0 C1.87137972 0.94793253 3.67485488 2.02721167 5.46484375 3.12109375 C11.1304798 4.93176094 17.64387717 5.28530218 23.171875 3.00390625 C24.05230469 2.54757813 24.93273437 2.09125 25.83984375 1.62109375 C32.62744223 -1.78727115 39.46786437 -2.21309146 46.8203125 -0.25 C52.95910703 2.39787462 56.84279668 7.57647456 60.73046875 12.83203125 C66.02745203 19.78873596 72.2607968 21.20238193 80.46484375 22.55859375 C87.99601806 23.84383596 93.29432939 25.25068659 98.234375 31.28125 C101.87039065 36.65437851 102.92501842 40.97948413 103.21484375 47.3828125 C103.78235886 53.59887649 105.93979887 59.18766461 110.71484375 63.30859375 C111.95420993 64.26010714 113.20483594 65.19708803 114.46484375 66.12109375 C120.89831627 71.15964513 125.63055438 75.51943654 126.875 83.875 C127.16846875 89.64655213 126.37750992 93.86959246 123.96484375 99.12109375 C121.16272175 105.26975003 120.33125677 110.42421066 121.46484375 117.12109375 C122.62333138 120.18908859 123.96721303 123.12625082 125.3359375 126.10546875 C127.69437813 132.40552469 127.63226783 139.22555295 124.96484375 145.43359375 C123.19007704 148.43192677 121.26989144 150.09254927 118.47265625 152.1328125 C113.3500485 156.52868955 112.77143356 161.16332127 111.83984375 167.62109375 C109.77767462 179.41451539 106.89055217 189.87418002 100.46484375 200.12109375 C99.44390625 199.90453125 99.44390625 199.90453125 98.40234375 199.68359375 C97.43296875 199.49796875 96.46359375 199.31234375 95.46484375 199.12109375 C93.73234375 198.78078125 93.73234375 198.78078125 91.96484375 198.43359375 C88.58376684 197.8616341 88.58376684 197.8616341 86.10546875 199.0859375 C83.14277033 200.24735034 80.88359063 200.32079618 77.71484375 200.37109375 C71.23943331 200.85516242 67.2011348 202.69581618 62.46484375 207.12109375 C61.0744996 208.77891363 59.72093163 210.46814932 58.40234375 212.18359375 C51.19971325 221.47414632 51.19971325 221.47414632 44.58154297 222.37841797 C36.96923459 223.01117029 30.13966278 223.1943428 23.546875 219.02734375 C18.04624193 216.63307194 10.52264461 217.07203284 4.92578125 218.9921875 C3.05780377 219.94716475 1.25497157 221.02712675 -0.53515625 222.12109375 C-7.01333607 224.18055534 -14.32313773 223.71884695 -20.53515625 221.12109375 C-24.99231823 217.97844634 -28.46933595 214.38479418 -31.59765625 209.93359375 C-34.41505686 205.95063837 -37.15769566 204.22564211 -41.53515625 202.12109375 C-42.19515625 201.79109375 -42.85515625 201.46109375 -43.53515625 201.12109375 C-45.70047608 200.87953253 -47.86745118 200.65272046 -50.03515625 200.43359375 C-57.72684765 199.3528125 -64.05992121 197.24536796 -69.1875 191.16015625 C-72.98992599 185.4069204 -74.59062294 179.57567133 -75.28515625 172.74609375 C-76.36316482 165.45709733 -78.80408486 161.12201418 -84.53125 156.515625 C-85.89141842 155.51542554 -87.26109465 154.52800815 -88.640625 153.5546875 C-92.99532534 150.25948127 -95.80492566 146.31178553 -97.53515625 141.12109375 C-98.21380176 134.44441952 -97.31584923 128.53158848 -95.53515625 122.12109375 C-95.86515625 121.79109375 -96.19515625 121.46109375 -96.53515625 121.12109375 C-96.58018485 119.45503547 -96.57390546 117.78730991 -96.53515625 116.12109375 C-96.53515625 111.93123421 -96.71888096 111.48519719 -99.03515625 108.37109375 C-101.92236806 103.95825297 -102.20977745 101.34940801 -101.53515625 96.12109375 C-100.79265625 94.75984375 -100.79265625 94.75984375 -100.03515625 93.37109375 C-98.38777791 89.80177402 -98.44994528 87.99016821 -98.59765625 84.12109375 C-98.76789542 77.59525891 -98.76789542 77.59525891 -96.78515625 74.43359375 C-94.464226 72.04819322 -93.65019818 71.71661647 -90.53515625 71.12109375 C-89.77903048 65.88637689 -89.32881965 61.34855234 -90.53515625 56.12109375 C-89.77203125 55.64671875 -89.00890625 55.17234375 -88.22265625 54.68359375 C-85.05572626 51.66396283 -84.38428927 49.38431374 -83.30859375 45.2421875 C-82.43044986 42.83394441 -81.50982313 41.73098227 -79.53515625 40.12109375 C-78.62765625 39.74984375 -77.72015625 39.37859375 -76.78515625 38.99609375 C-73.54943046 37.12932887 -72.52844867 35.9983703 -70.41015625 33.05859375 C-63.58768475 23.85200584 -53.56020053 15.65742871 -42.53515625 12.12109375 C-39.12247884 12.42387265 -36.51587469 13.46513906 -33.53515625 15.12109375 C-32.82552734 14.14269531 -32.82552734 14.14269531 -32.1015625 13.14453125 C-23.70050571 2.04138017 -14.61805494 -5.0678927 0 0 Z " fill="#F3AB65" transform="translate(235.53515625,134.87890625)"/>
<path d="M0 0 C3.13107515 1.23167654 6.25143529 1.9704691 9.5234375 2.75390625 C30.47452791 8.15145776 53.96541349 20.21178443 66.1484375 38.75390625 C73.52140753 52.56430328 77.11247025 67.72238675 77.0234375 83.31640625 C77.01997314 84.312771 77.01650879 85.30913574 77.01293945 86.33569336 C76.85910085 96.86216372 75.76128534 106.65889557 70.7109375 116.06640625 C65.15021978 115.53990509 60.89381159 114.07913341 55.8984375 111.62890625 C55.16488037 111.27473633 54.43132324 110.92056641 53.67553711 110.55566406 C41.55082008 104.62133371 29.88722945 98.0127312 18.5859375 90.62890625 C17.79711182 90.12069336 17.00828613 89.61248047 16.19555664 89.08886719 C15.4761792 88.60836914 14.75680176 88.12787109 14.015625 87.6328125 C13.37608887 87.20943604 12.73655273 86.78605957 12.07763672 86.34985352 C11.62662598 85.92631592 11.17561523 85.50277832 10.7109375 85.06640625 C10.7109375 84.07640625 10.7109375 83.08640625 10.7109375 82.06640625 C9.99252686 81.94563721 9.27411621 81.82486816 8.53393555 81.70043945 C5.65636115 81.05414864 3.23522693 80.11818594 0.54296875 78.921875 C-0.43349609 78.49197266 -1.40996094 78.06207031 -2.41601562 77.61914062 C-3.42599609 77.16861328 -4.43597656 76.71808594 -5.4765625 76.25390625 C-7.46940565 75.37093541 -9.46289081 74.48941206 -11.45703125 73.609375 C-12.42560059 73.17931152 -13.39416992 72.74924805 -14.39208984 72.30615234 C-18.019679 70.75374229 -21.70423387 69.38048751 -25.41918945 68.05200195 C-27.2890625 67.06640625 -27.2890625 67.06640625 -28.2890625 64.06640625 C-30.7640625 64.56140625 -30.7640625 64.56140625 -33.2890625 65.06640625 C-32.6290625 64.73640625 -31.9690625 64.40640625 -31.2890625 64.06640625 C-31.2890625 63.40640625 -31.2890625 62.74640625 -31.2890625 62.06640625 C-33.0834375 62.28296875 -33.0834375 62.28296875 -34.9140625 62.50390625 C-41.52103972 62.49359895 -46.73621101 59.16740575 -52.37695312 56.08837891 C-54.92345958 54.72733754 -57.51805576 53.47697914 -60.11669922 52.21923828 C-66.80486501 48.96646982 -73.30300555 45.43944217 -79.7265625 41.69140625 C-80.46688721 41.26239014 -81.20721191 40.83337402 -81.9699707 40.39135742 C-87.16545513 37.31362099 -87.16545513 37.31362099 -88.2890625 35.06640625 C-87.0515625 34.57140625 -87.0515625 34.57140625 -85.7890625 34.06640625 C-82.86344323 32.60700643 -80.86796731 30.78725205 -78.6015625 28.44140625 C-60.21935413 9.43371631 -27.61463937 -11.26262595 0 0 Z " fill="#F5AD67" transform="translate(264.2890625,217.93359375)"/>
<path d="M0 0 C1.87137972 0.94793253 3.67485488 2.02721167 5.46484375 3.12109375 C11.1304798 4.93176094 17.64387717 5.28530218 23.171875 3.00390625 C24.05230469 2.54757813 24.93273437 2.09125 25.83984375 1.62109375 C32.62744223 -1.78727115 39.46786437 -2.21309146 46.8203125 -0.25 C52.95910703 2.39787462 56.84279668 7.57647456 60.73046875 12.83203125 C66.02745203 19.78873596 72.2607968 21.20238193 80.46484375 22.55859375 C87.99601806 23.84383596 93.29432939 25.25068659 98.234375 31.28125 C101.87039065 36.65437851 102.92501842 40.97948413 103.21484375 47.3828125 C103.78235886 53.59887649 105.93979887 59.18766461 110.71484375 63.30859375 C111.95420993 64.26010714 113.20483594 65.19708803 114.46484375 66.12109375 C120.89831627 71.15964513 125.63055438 75.51943654 126.875 83.875 C127.16846875 89.64655213 126.37750992 93.86959246 123.96484375 99.12109375 C121.16272175 105.26975003 120.33125677 110.42421066 121.46484375 117.12109375 C122.62333138 120.18908859 123.96721303 123.12625082 125.3359375 126.10546875 C127.69437813 132.40552469 127.63226783 139.22555295 124.96484375 145.43359375 C122.39638219 149.85654019 118.55807657 153.12376079 114.46484375 156.12109375 C114.13484375 156.12109375 113.80484375 156.12109375 113.46484375 156.12109375 C113.4390625 155.15171875 113.41328125 154.18234375 113.38671875 153.18359375 C112.87943455 139.84134732 109.9561292 127.69669302 105.46484375 115.12109375 C104.80484375 115.12109375 104.14484375 115.12109375 103.46484375 115.12109375 C103.12453125 114.44304687 102.78421875 113.765 102.43359375 113.06640625 C89.85981738 88.92208035 68.29684416 72.82837654 43.27734375 63.05859375 C18.1739753 55.34064324 -10.93462135 64.56250579 -33.546875 75.92578125 C-47.15042589 83.16220114 -56.86291049 93.18017598 -61.53515625 108.12109375 C-62.30121083 111.52228697 -62.30121083 111.52228697 -62.53515625 114.12109375 C-63.19515625 114.12109375 -63.85515625 114.12109375 -64.53515625 114.12109375 C-64.71145281 102.96404005 -59.48937802 93.85916111 -51.97265625 85.87109375 C-43.03041688 77.56181409 -26.40028788 65.12109375 -13.53515625 65.12109375 C-14.08945313 64.02410156 -14.64375 62.92710937 -15.21484375 61.796875 C-15.94672183 60.34250188 -16.6784867 58.88807179 -17.41015625 57.43359375 C-17.77496094 56.71236328 -18.13976562 55.99113281 -18.515625 55.24804688 C-20.01567689 52.26157992 -21.45268857 49.33413524 -22.66015625 46.21484375 C-23.75345441 43.59873745 -25.17340417 42.61687007 -27.53515625 41.12109375 C-27.20515625 40.13109375 -26.87515625 39.14109375 -26.53515625 38.12109375 C-27.00953125 37.74984375 -27.48390625 37.37859375 -27.97265625 36.99609375 C-29.53515625 35.12109375 -29.53515625 35.12109375 -29.91796875 32.3828125 C-30.62452967 28.64877221 -31.97500434 26.27726367 -33.97265625 23.05859375 C-36.18116586 19.47610531 -38.08992672 16.07913443 -39.53515625 12.12109375 C-38.21515625 13.11109375 -36.89515625 14.10109375 -35.53515625 15.12109375 C-32.22773782 13.73888903 -30.77750848 12.36149541 -28.84765625 9.37109375 C-21.69365961 -0.35692153 -11.8653155 -4.11355314 0 0 Z " fill="#B56139" transform="translate(235.53515625,134.87890625)"/>
<path d="M0 0 C0.66 0.33 1.32 0.66 2 1 C1.09121094 2.04220703 1.09121094 2.04220703 0.1640625 3.10546875 C-15.99496118 22.7200375 -24.58635052 46.65178847 -23 72 C-21.64181771 84.93635009 -17.0085833 98.60685002 -10.88500977 110.09106445 C-10 112 -10 112 -10 115 C-8.515 115.495 -8.515 115.495 -7 116 C-5.640625 117.78515625 -5.640625 117.78515625 -4.25 120.0625 C0.455163 127.34678938 4.54044484 133.23769627 13 136 C13 136.33 13 136.66 13 137 C14.98 137.33 16.96 137.66 19 138 C18.34 138.99 17.68 139.98 17 141 C27.28243836 147.894446 38.71867052 152.30738087 51 154 C51.804375 154.11085938 52.60875 154.22171875 53.4375 154.3359375 C60.6227964 155.10877461 67.84296522 155.13341695 75.0625 155.1875 C76.06748535 155.20055176 77.0724707 155.21360352 78.10791016 155.22705078 C84.94181054 155.2348635 91.32341707 154.44822034 98 153 C97.51314119 148.21255507 96.85542813 144.45302752 95 140 C95 138.68 95 137.36 95 136 C94.46777832 135.82984375 93.93555664 135.6596875 93.38720703 135.484375 C87.45045936 133.55046369 81.66120184 131.34266315 75.875 129 C75.02035156 128.65710938 74.16570312 128.31421875 73.28515625 127.9609375 C68.49640106 126.03366582 63.73596297 124.05353408 59 122 C59 121.34 59 120.68 59 120 C58.10925781 119.95617187 57.21851563 119.91234375 56.30078125 119.8671875 C50.15335148 118.9759875 44.70262635 115.83305369 39.1875 113.125 C38.29584137 112.6911499 38.29584137 112.6911499 37.38616943 112.24853516 C29.62447813 108.46562677 22.00616897 104.49002162 14.625 100 C13.5580188 99.35248779 13.5580188 99.35248779 12.46948242 98.69189453 C8.46632236 96.17220368 5.12250902 93.56858173 2 90 C2 89.34 2 88.68 2 88 C2.94875 88.185625 3.8975 88.37125 4.875 88.5625 C11.02443517 88.5625 14.92640221 83.01324819 19 79 C20.82441695 77.32357771 22.65743119 75.65645075 24.5 74 C25.3146875 73.2575 26.129375 72.515 26.96875 71.75 C29 70 29 70 31 69 C30.94199219 68.40832031 30.88398438 67.81664062 30.82421875 67.20703125 C30.58099034 62.94705934 30.5698863 60.6659825 32.9375 57 C36.92744112 54.39432416 40.31268454 54.11233218 45 54 C45.103125 53.236875 45.20625 52.47375 45.3125 51.6875 C46.35231317 47.6227758 46.35231317 47.6227758 49 46 C53.96161052 45.59987012 57.47806839 45.7390342 62 48 C62.28875 47.38125 62.5775 46.7625 62.875 46.125 C64 44 64 44 66 42 C68.72265625 42.0234375 68.72265625 42.0234375 72.0625 42.375 C76.08069368 42.76972322 79.90739405 43.02569673 83.9375 42.8125 C88.26130985 42.74096638 90.65509294 44.22617463 94 47 C94.66 47.66 95.32 48.32 96 49 C97.36125 48.938125 97.36125 48.938125 98.75 48.875 C102.94338251 49.03628394 104.78564884 50.37007632 108 53 C109.171875 55.140625 109.171875 55.140625 110 57 C110.72445312 56.96519531 111.44890625 56.93039063 112.1953125 56.89453125 C122.21294945 56.61403742 122.21294945 56.61403742 127 60 C127.5775 60.86625 128.155 61.7325 128.75 62.625 C131.42905273 65.45288899 132.13160478 65.31003666 135.875 65.5 C139.86974888 65.75734839 142.56893587 66.18584139 145.58203125 69.09765625 C148.24133257 72.66536904 150.11918013 76.68495607 152.1328125 80.640625 C154.43374833 84.78038403 157.23115265 88.22317612 160.265625 91.83984375 C162.68960449 94.85889929 165 98.00077394 165 102 C164.34 102 163.68 102 163 102 C161.87086688 100.18564097 160.82235036 98.32085937 159.8125 96.4375 C148.73141911 77.10214456 125.59727741 66.32098478 105 60 C101.75348594 59.13498678 98.50662444 58.32250912 95.23046875 57.578125 C93 57 93 57 92 56 C71.26349103 52.34061606 51.69603129 57.4043589 34.5625 69.3203125 C28.09133414 74.0537882 22.17178896 79.42290888 16.3996582 84.97753906 C13.45552574 87.78919735 10.58187908 90.05762072 7 92 C18.02944483 98.42204547 29.05695891 104.74635312 40.546875 110.3125 C42.68154847 111.35568884 44.80049827 112.43270177 46.890625 113.5625 C52.43685929 116.556786 56.72418121 117.50191914 63 118 C63.33 118.66 63.66 119.32 64 120 C64.66 120 65.32 120 66 120 C66.41491699 120.442229 66.82983398 120.88445801 67.25732422 121.34008789 C69.57147301 123.54433244 71.91521761 124.38163305 74.8828125 125.55859375 C76.05070312 126.02716797 77.21859375 126.49574219 78.421875 126.97851562 C79.64390625 127.45998047 80.8659375 127.94144531 82.125 128.4375 C84.52396208 129.39321554 86.92241044 130.35022171 89.3203125 131.30859375 C90.46016602 131.76347168 91.60001953 132.21834961 92.77441406 132.68701172 C96.89542163 134.36448513 100.95017669 136.15798359 105 138 C105 138.99 105 139.98 105 141 C105.68449219 141.23589844 106.36898437 141.47179687 107.07421875 141.71484375 C110.61687693 143.27096463 113.65040024 145.36460742 116.8125 147.5625 C129.24436221 156.00565271 142.2926569 162.87502341 156 169 C152.24332345 172.75667655 148.39281224 173.16836806 143.25 173.25 C136.77458956 173.73406867 132.73629105 175.57472243 128 180 C126.60965585 181.65781988 125.25608788 183.34705557 123.9375 185.0625 C116.7348695 194.35305257 116.7348695 194.35305257 110.11669922 195.25732422 C102.50439084 195.89007654 95.67481903 196.07324905 89.08203125 191.90625 C83.58139818 189.51197819 76.05780086 189.95093909 70.4609375 191.87109375 C68.59296002 192.826071 66.79012782 193.906033 65 195 C58.52182018 197.05946159 51.21201852 196.5977532 45 194 C40.54283802 190.85735259 37.0658203 187.26370043 33.9375 182.8125 C31.12009939 178.82954462 28.37746059 177.10454836 24 175 C23.34 174.67 22.68 174.34 22 174 C19.83468017 173.75843878 17.66770507 173.53162671 15.5 173.3125 C7.8083086 172.23171875 1.47523504 170.12427421 -3.65234375 164.0390625 C-7.45476974 158.28582665 -9.05546669 152.45457758 -9.75 145.625 C-10.82800857 138.33600358 -13.26892861 134.00092043 -18.99609375 129.39453125 C-20.35626217 128.39433179 -21.7259384 127.4069144 -23.10546875 126.43359375 C-27.46016909 123.13838752 -30.26976941 119.19069178 -32 114 C-32.67864551 107.32332577 -31.78069298 101.41049473 -30 95 C-30.33 94.67 -30.66 94.34 -31 94 C-31.0450286 92.33394172 -31.03874921 90.66621616 -31 89 C-31 84.81014046 -31.18372471 84.36410344 -33.5 81.25 C-36.38721181 76.83715922 -36.6746212 74.22831426 -36 69 C-35.2575 67.63875 -35.2575 67.63875 -34.5 66.25 C-32.85262166 62.68068027 -32.91478903 60.86907446 -33.0625 57 C-33.23273917 50.47416516 -33.23273917 50.47416516 -31.25 47.3125 C-28.92906975 44.92709947 -28.11504193 44.59552272 -25 44 C-24.24387423 38.76528314 -23.7936634 34.22745859 -25 29 C-24.236875 28.525625 -23.47375 28.05125 -22.6875 27.5625 C-19.52057001 24.54286908 -18.84913302 22.26321999 -17.7734375 18.12109375 C-16.89529361 15.71285066 -15.97466688 14.60988852 -14 13 C-13.0925 12.62875 -12.185 12.2575 -11.25 11.875 C-6.60406246 9.19465142 -4.10227115 5.29019316 -1 1 C-0.67 0.67 -0.34 0.34 0 0 Z " fill="#B6623A" transform="translate(170,162)"/>
<path d="M0 0 C0.75941895 0.35416992 1.51883789 0.70833984 2.30126953 1.07324219 C12.49221441 5.93032402 21.73961722 11.20951923 30 19 C30.51755859 19.47276367 31.03511719 19.94552734 31.56835938 20.43261719 C39.82815843 28.0097482 51.0692178 38.38691294 53 50 C53.66 50 54.32 50 55 50 C55.9698379 52.28735354 56.92573867 54.57911212 57.875 56.875 C58.27912109 57.82246094 58.27912109 57.82246094 58.69140625 58.7890625 C67.73725892 80.85211778 63.30695289 105.54371307 54.46484375 126.86328125 C53.13533717 129.71019801 51.67772837 132.34650083 50 135 C49.01 134.67 48.02 134.34 47 134 C47.66 134 48.32 134 49 134 C57.37846563 111.1496392 55.75298536 86.44676761 47 64 C47.66 64 48.32 64 49 64 C45.57260908 57.17118324 41.7893146 51.33690637 36.8828125 45.48828125 C34.96736508 42.95687045 33.64992733 40.49752474 32.3125 37.625 C30.4168558 33.65287712 29.0553627 31.07274093 25 29 C23.33708361 28.83233405 21.66910531 28.7115462 20 28.625 C15.43407207 28.36119083 15.43407207 28.36119083 13.41796875 26.68359375 C12.24945471 25.14412287 11.12336903 23.57271665 10 22 C6.27754865 20.03713743 3.57810893 19.90446935 -0.5625 20.25 C-3.4765625 20.3203125 -3.4765625 20.3203125 -6 20 C-8.4375 17.125 -8.4375 17.125 -10 14 C-12.72350039 11.93389626 -13.95323087 11.99744896 -17.4375 12.1875 C-21 12 -21 12 -23.8125 9.5625 C-24.8953125 8.2940625 -24.8953125 8.2940625 -26 7 C-28.76241434 5.61879283 -30.97996468 5.94231513 -34.0625 6 C-38.1936678 6.05940839 -41.99874632 5.91220274 -46.0625 5.1875 C-47.361875 5.125625 -48.66125 5.06375 -50 5 C-52.62892786 7.26092815 -52.62892786 7.26092815 -54 10 C-54.66 9.835 -55.32 9.67 -56 9.5 C-62.70542112 8.28916721 -62.70542112 8.28916721 -68.9375 10.25 C-70.09457711 12.15577406 -70.50456757 13.83973606 -71 16 C-71.60328125 16.09796875 -72.2065625 16.1959375 -72.828125 16.296875 C-76.44823677 16.97418623 -79.397964 17.63290488 -82.5625 19.5625 C-84.23708781 22.40201845 -83.9569644 23.04274211 -83.5625 26.1875 C-83.4453125 28.57421875 -83.4453125 28.57421875 -84 31 C-86.44206817 33.61778894 -89.08069541 35.60513314 -91.96484375 37.72265625 C-95.7280054 40.54623829 -98.87533259 43.76528232 -102.125 47.15234375 C-104 49 -104 49 -107 51 C-110.6875 50.625 -110.6875 50.625 -114 50 C-112.33222462 37.00285395 -106.42726043 26.06416495 -96.296875 17.79296875 C-70.96640412 -0.88666241 -29.94114991 -14.06113016 0 0 Z " fill="#EFA964" transform="translate(286,200)"/>
<path d="M0 0 C2.72265625 0.0234375 2.72265625 0.0234375 6.0625 0.375 C10.08069368 0.76972322 13.90739405 1.02569673 17.9375 0.8125 C22.26130985 0.74096638 24.65509294 2.22617463 28 5 C28.99 5.99 28.99 5.99 30 7 C30.9075 6.95875 31.815 6.9175 32.75 6.875 C36.94338251 7.03628394 38.78564884 8.37007632 42 11 C43.171875 13.140625 43.171875 13.140625 44 15 C45.08667969 14.94779297 45.08667969 14.94779297 46.1953125 14.89453125 C56.21294945 14.61403742 56.21294945 14.61403742 61 18 C61.86625 19.299375 61.86625 19.299375 62.75 20.625 C65.42905273 23.45288899 66.13160478 23.31003666 69.875 23.5 C73.86974888 23.75734839 76.56893587 24.18584139 79.58203125 27.09765625 C82.24133257 30.66536904 84.11918013 34.68495607 86.1328125 38.640625 C88.43374833 42.78038403 91.23115265 46.22317612 94.265625 49.83984375 C96.68960449 52.85889929 99 56.00077394 99 60 C98.34 60 97.68 60 97 60 C95.87086688 58.18564097 94.82235036 56.32085937 93.8125 54.4375 C82.73141911 35.10214456 59.59727741 24.32098478 39 18 C35.75348594 17.13498678 32.50662444 16.32250912 29.23046875 15.578125 C27 15 27 15 26 14 C5.26349103 10.34061606 -14.30396871 15.4043589 -31.4375 27.3203125 C-37.90866586 32.0537882 -43.82821104 37.42290888 -49.6003418 42.97753906 C-52.54447426 45.78919735 -55.41812092 48.05762072 -59 50 C-47.97055517 56.42204547 -36.94304109 62.74635312 -25.453125 68.3125 C-23.31845153 69.35568884 -21.19950173 70.43270177 -19.109375 71.5625 C-13.56314071 74.556786 -9.27581879 75.50191914 -3 76 C-2.67 76.66 -2.34 77.32 -2 78 C-1.34 78 -0.68 78 0 78 C0.41419189 78.442229 0.82838379 78.88445801 1.25512695 79.34008789 C3.57917296 81.55097201 5.93726021 82.38350022 8.91796875 83.55859375 C10.09037109 84.02716797 11.26277344 84.49574219 12.47070312 84.97851562 C13.69724609 85.45998047 14.92378906 85.94144531 16.1875 86.4375 C23.60917074 89.3736762 30.93351837 92.277557 38 96 C38 96.66 38 97.32 38 98 C33.90469268 96.67419481 29.91353647 95.20357597 25.9296875 93.57421875 C24.785 93.10693359 23.6403125 92.63964844 22.4609375 92.15820312 C21.27757812 91.67287109 20.09421875 91.18753906 18.875 90.6875 C17.71484375 90.21376953 16.5546875 89.74003906 15.359375 89.25195312 C7.89305034 86.19944567 0.44164438 83.1121613 -7 80 C-7 79.34 -7 78.68 -7 78 C-7.89074219 77.95617187 -8.78148437 77.91234375 -9.69921875 77.8671875 C-15.84664852 76.9759875 -21.29737365 73.83305369 -26.8125 71.125 C-27.70415863 70.6911499 -27.70415863 70.6911499 -28.61383057 70.24853516 C-36.37552187 66.46562677 -43.99383103 62.49002162 -51.375 58 C-52.0863208 57.5683252 -52.7976416 57.13665039 -53.53051758 56.69189453 C-57.53367764 54.17220368 -60.87749098 51.56858173 -64 48 C-64 47.34 -64 46.68 -64 46 C-62.576875 46.2784375 -62.576875 46.2784375 -61.125 46.5625 C-54.97556483 46.5625 -51.07359779 41.01324819 -47 37 C-45.17558305 35.32357771 -43.34256881 33.65645075 -41.5 32 C-40.6853125 31.2575 -39.870625 30.515 -39.03125 29.75 C-37 28 -37 28 -35 27 C-35.05800781 26.40832031 -35.11601562 25.81664062 -35.17578125 25.20703125 C-35.41900966 20.94705934 -35.4301137 18.6659825 -33.0625 15 C-29.07255888 12.39432416 -25.68731546 12.11233218 -21 12 C-20.896875 11.236875 -20.79375 10.47375 -20.6875 9.6875 C-19.64768683 5.6227758 -19.64768683 5.6227758 -17 4 C-12.03838948 3.59987012 -8.52193161 3.7390342 -4 6 C-3.566875 5.071875 -3.566875 5.071875 -3.125 4.125 C-2 2 -2 2 0 0 Z " fill="#5FA73E" transform="translate(236,204)"/>
<path d="M0 0 C0.66 0.33 1.32 0.66 2 1 C1.09121094 2.04220703 1.09121094 2.04220703 0.1640625 3.10546875 C-15.99496118 22.7200375 -24.58635052 46.65178847 -23 72 C-21.64181771 84.93635009 -17.0085833 98.60685002 -10.88500977 110.09106445 C-10 112 -10 112 -10 115 C-8.515 115.495 -8.515 115.495 -7 116 C-5.640625 117.78515625 -5.640625 117.78515625 -4.25 120.0625 C0.455163 127.34678938 4.54044484 133.23769627 13 136 C13 136.33 13 136.66 13 137 C14.98 137.33 16.96 137.66 19 138 C18.34 138.99 17.68 139.98 17 141 C31.14751038 150.4860035 46.26199601 153.90714063 63 155 C63 155.66 63 156.32 63 157 C43.05978734 158.09874641 22.23806733 150.57312443 7.17529297 137.40478516 C-2.82219262 128.15731046 -2.82219262 128.15731046 -5.53125 123.1953125 C-6.8311213 120.78303814 -6.8311213 120.78303814 -9.48828125 120.1015625 C-10.42027344 119.94429688 -11.35226563 119.78703125 -12.3125 119.625 C-17.26054073 118.45033251 -20.00852573 117.07839365 -23.05078125 112.97265625 C-24.7111782 109.52203707 -24.37805853 106.78058525 -24 103 C-24 102.01 -24 101.02 -24 100 C-25.54732363 98.49914186 -25.54732363 98.49914186 -27.5 97.125 C-30.94603375 94.32379752 -30.94603375 94.32379752 -31.4375 91.375 C-31.293125 90.59125 -31.14875 89.8075 -31 89 C-31 84.81014046 -31.18372471 84.36410344 -33.5 81.25 C-36.38721181 76.83715922 -36.6746212 74.22831426 -36 69 C-35.2575 67.63875 -35.2575 67.63875 -34.5 66.25 C-32.85262166 62.68068027 -32.91478903 60.86907446 -33.0625 57 C-33.23273917 50.47416516 -33.23273917 50.47416516 -31.25 47.3125 C-28.92906975 44.92709947 -28.11504193 44.59552272 -25 44 C-24.24387423 38.76528314 -23.7936634 34.22745859 -25 29 C-24.236875 28.525625 -23.47375 28.05125 -22.6875 27.5625 C-19.52057001 24.54286908 -18.84913302 22.26321999 -17.7734375 18.12109375 C-16.89529361 15.71285066 -15.97466688 14.60988852 -14 13 C-13.0925 12.62875 -12.185 12.2575 -11.25 11.875 C-6.60406246 9.19465142 -4.10227115 5.29019316 -1 1 C-0.67 0.67 -0.34 0.34 0 0 Z " fill="#61A543" transform="translate(170,162)"/>
<path d="M0 0 C3 2.5625 3 2.5625 5 6 C5.36550714 12.45729281 1.93960482 17.17617276 -2 22 C-6.04741976 26.02222835 -9.05553743 28.8431885 -14.875 29.3125 C-17.82968653 29.25340627 -18.89058393 29.06564964 -21.5 27.5 C-23.16797894 24.72003509 -23.74811519 22.53534793 -23.578125 19.28125 C-21.66178028 11.71945732 -15.18494243 5.42247862 -9 1 C-5.82121306 -0.58939347 -3.5043228 -0.41576711 0 0 Z " fill="#5A3920" transform="translate(149,339)"/>
<path d="M0 0 C2.9375 1.75 2.9375 1.75 5 5 C6.31822634 12.85154107 4.93562878 20.11264963 1 27 C-0.55654019 28.96377454 -2.06448398 30.37835144 -4 32 C-4.495 32.495 -4.495 32.495 -5 33 C-8.3125 33.375 -8.3125 33.375 -12 33 C-14.7815846 30.33225249 -15.89090395 28.61620459 -16.56640625 24.80078125 C-16.55565217 15.19739173 -14.66136068 9.12590495 -9.125 1.375 C-5.89097079 -0.71760713 -3.76138831 -0.59390342 0 0 Z " fill="#5B3A21" transform="translate(300,82)"/>
<path d="M0 0 C1.8125 0.125 1.8125 0.125 4 1 C4.37125 1.94875 4.7425 2.8975 5.125 3.875 C7.32991127 7.54985212 8.21558515 7.71303335 12.1875 8.875 C13.78612994 9.27294222 15.38902121 9.65543793 17 10 C16.37260536 14.64272031 16.37260536 14.64272031 14.48046875 16.45703125 C12.32456936 18.70394487 12.49212973 20.63379463 12.3125 23.6875 C12.24675781 24.68136719 12.18101563 25.67523438 12.11328125 26.69921875 C12.07589844 27.45847656 12.03851563 28.21773438 12 29 C8.95935831 28.49322639 5.94620854 27.98792437 2.9375 27.3125 C-0.40009331 26.95743688 -1.96167246 27.72070419 -5 29 C-7.1484375 28.5625 -7.1484375 28.5625 -9 28 C-8.94199219 27.41992188 -8.88398437 26.83984375 -8.82421875 26.2421875 C-8.47612048 21.50116427 -8.47612048 21.50116427 -10.11328125 17.171875 C-11.3819607 15.756672 -12.68922928 14.37630926 -14 13 C-14 12.01 -14 11.02 -14 10 C-10.38026598 8.68373308 -7.90432869 8 -4 8 C-3.71125 7.236875 -3.4225 6.47375 -3.125 5.6875 C-2 3 -2 3 0 0 Z " fill="#56331A" transform="translate(83,228)"/>
<path d="M0 0 C2.33944736 0.28730055 4.6739143 0.61936779 7 1 C7.495 2.485 7.495 2.485 8 4 C9.66289062 3.98259766 9.66289062 3.98259766 11.359375 3.96484375 C12.82291498 3.95546208 14.28645678 3.94636229 15.75 3.9375 C16.47960937 3.92912109 17.20921875 3.92074219 17.9609375 3.91210938 C21.48670558 3.89608316 24.61034916 4.04707287 28 5 C28 5.66 28 6.32 28 7 C27.44763672 6.97905273 26.89527344 6.95810547 26.32617188 6.93652344 C-3.15408796 5.97175934 -23.68051896 15.47418916 -45 35.4375 C-45.52811279 35.94571289 -46.05622559 36.45392578 -46.6003418 36.97753906 C-49.54447426 39.78919735 -52.41812092 42.05762072 -56 44 C-44.97055517 50.42204547 -33.94304109 56.74635312 -22.453125 62.3125 C-20.31845153 63.35568884 -18.19950173 64.43270177 -16.109375 65.5625 C-10.56314071 68.556786 -6.27581879 69.50191914 0 70 C0.33 70.66 0.66 71.32 1 72 C1.66 72 2.32 72 3 72 C3.41419189 72.442229 3.82838379 72.88445801 4.25512695 73.34008789 C6.57917296 75.55097201 8.93726021 76.38350022 11.91796875 77.55859375 C13.09037109 78.02716797 14.26277344 78.49574219 15.47070312 78.97851562 C16.69724609 79.45998047 17.92378906 79.94144531 19.1875 80.4375 C26.60917074 83.3736762 33.93351837 86.277557 41 90 C41 90.66 41 91.32 41 92 C36.90469268 90.67419481 32.91353647 89.20357597 28.9296875 87.57421875 C27.785 87.10693359 26.6403125 86.63964844 25.4609375 86.15820312 C24.27757812 85.67287109 23.09421875 85.18753906 21.875 84.6875 C20.71484375 84.21376953 19.5546875 83.74003906 18.359375 83.25195312 C10.89305034 80.19944567 3.44164438 77.1121613 -4 74 C-4 73.34 -4 72.68 -4 72 C-4.89074219 71.95617187 -5.78148437 71.91234375 -6.69921875 71.8671875 C-12.84664852 70.9759875 -18.29737365 67.83305369 -23.8125 65.125 C-24.70415863 64.6911499 -24.70415863 64.6911499 -25.61383057 64.24853516 C-33.37552187 60.46562677 -40.99383103 56.49002162 -48.375 52 C-49.0863208 51.5683252 -49.7976416 51.13665039 -50.53051758 50.69189453 C-54.53367764 48.17220368 -57.87749098 45.56858173 -61 42 C-61 41.34 -61 40.68 -61 40 C-59.576875 40.2784375 -59.576875 40.2784375 -58.125 40.5625 C-51.98358816 40.5625 -48.05856861 35.02183948 -44 31 C-35.81719987 23.11377582 -26.95164587 16.30182947 -16.64453125 11.40625 C-13.36809152 9.66397776 -13.31399813 8.32879526 -12 5 C-9.375 4.1875 -9.375 4.1875 -7 4 C-6.67 3.01 -6.34 2.02 -6 1 C-4.7934375 1.0309375 -4.7934375 1.0309375 -3.5625 1.0625 C-1.06645115 1.29633621 -1.06645115 1.29633621 0 0 Z " fill="#603B1C" transform="translate(233,210)"/>
<path d="M0 0 C1.75 0.125 1.75 0.125 4 1 C4.556875 1.94875 5.11375 2.8975 5.6875 3.875 C8.80364272 8.08600368 12.05257387 8.79485774 17 10 C17 14 17 14 15.0625 16.125 C12.13977356 20.19910352 12.1905704 24.09281219 12 29 C10.9790625 28.7834375 10.9790625 28.7834375 9.9375 28.5625 C8.968125 28.376875 7.99875 28.19125 7 28 C5.824375 27.773125 4.64875 27.54625 3.4375 27.3125 C-0.124784 26.988656 -1.04839346 27.26974789 -4 29 C-5.32 29 -6.64 29 -8 29 C-8.01417969 28.26394531 -8.02835937 27.52789062 -8.04296875 26.76953125 C-8.25657023 20.33735663 -8.25657023 20.33735663 -11.5625 15 C-12.366875 14.34 -13.17125 13.68 -14 13 C-14 12.01 -14 11.02 -14 10 C-13.32453125 9.86464844 -12.6490625 9.72929687 -11.953125 9.58984375 C-6.6456943 8.43117071 -6.6456943 8.43117071 -2.4453125 5.2421875 C-1.22605913 3.12943936 -1.22605913 3.12943936 0 0 Z " fill="#543218" transform="translate(410,228)"/>
<path d="M0 0 C4.03332992 0.10266658 6.81992823 1.10745386 10.25 3.3125 C12.24825961 6.30988941 12.52550398 6.94597508 12.5 10.3125 C12.50515625 10.993125 12.5103125 11.67375 12.515625 12.375 C12.25 14.3125 12.25 14.3125 10.25 17.3125 C10.56191115 21.26337453 11.94237575 24.11732796 14.25 27.3125 C15.24 27.6425 16.23 27.9725 17.25 28.3125 C16.59 29.6325 15.93 30.9525 15.25 32.3125 C12.54068581 32.15768205 10.78415961 31.83077919 8.8046875 29.91015625 C7.57320358 28.41478292 6.4070163 26.8662076 5.25 25.3125 C5.25 28.2825 5.25 31.2525 5.25 34.3125 C3.6 33.9825 1.95 33.6525 0.25 33.3125 C-6.3081112 9.14936215 -6.3081112 9.14936215 -5.75 2.3125 C-3.75 0.3125 -3.75 0.3125 0 0 Z " fill="#58371E" transform="translate(280.75,373.6875)"/>
<path d="M0 0 C4.14457975 0.09419499 5.74535984 0.77303812 8.875 3.5625 C11.74388566 7.42481856 11.67187846 10.29685076 11 15 C9.5 17.9375 9.5 17.9375 7 20 C4.26556811 20.69926312 1.84653402 20.8576733 -1 21 C-1.16820551 22.93736701 -1.33451095 24.87489906 -1.5 26.8125 C-1.5928125 27.89144531 -1.685625 28.97039062 -1.78125 30.08203125 C-2.03737838 33.01090811 -2.03737838 33.01090811 -2 36 C-4.86724686 35.42655063 -5.8614515 35.1385485 -8 33 C-7.9765625 30.6171875 -7.9765625 30.6171875 -7.625 27.875 C-7.51414063 26.96492188 -7.40328125 26.05484375 -7.2890625 25.1171875 C-7.19367188 24.41851562 -7.09828125 23.71984375 -7 23 C-7.7425 23.99 -8.485 24.98 -9.25 26 C-10.515625 27.6875 -10.515625 27.6875 -12 29 C-13.32 29 -14.64 29 -16 29 C-15.83827405 21.70211654 -12.07550719 16.96549062 -8 11.125 C-7.34515625 10.16335938 -6.6903125 9.20171875 -6.015625 8.2109375 C-1.27218192 1.27218192 -1.27218192 1.27218192 0 0 Z " fill="#59381F" transform="translate(158,349)"/>
<path d="M0 0 C3.63467079 1.62400184 4.77408696 2.66113044 7 6 C7.45454545 13.04545455 7.45454545 13.04545455 5.75 16.625 C4.63199541 19.2062135 4.63199541 19.2062135 6.625 22.25 C8.69856586 25.08501608 8.69856586 25.08501608 11.25 25.875 C11.8275 25.91625 12.405 25.9575 13 26 C12.67 27.65 12.34 29.3 12 31 C9.087425 30.91433603 7.43201976 30.42089045 5.33203125 28.375 C3.84293537 26.62062576 2.41732137 24.81285291 1 23 C1.33 26.3 1.66 29.6 2 33 C0.02 33.495 0.02 33.495 -2 34 C-6.22906145 29.19424836 -7.01468728 23.01128409 -8.50048828 16.96289062 C-8.970493 15.11595127 -9.49712581 13.28368731 -10.02734375 11.453125 C-10.32769531 10.39609375 -10.62804687 9.3390625 -10.9375 8.25 C-11.21464844 7.30640625 -11.49179688 6.3628125 -11.77734375 5.390625 C-12 3 -12 3 -10.83984375 1.1953125 C-7.47671637 -0.98964923 -3.85844763 -0.50858273 0 0 Z " fill="#59371F" transform="translate(203,83)"/>
<path d="M0 0 C0.7940625 0.09796875 1.588125 0.1959375 2.40625 0.296875 C3.59734375 0.42835938 3.59734375 0.42835938 4.8125 0.5625 C6.90625 1.046875 6.90625 1.046875 8.90625 3.046875 C8.90625 3.376875 8.90625 3.706875 8.90625 4.046875 C9.56625 3.716875 10.22625 3.386875 10.90625 3.046875 C15.1391673 2.76930665 17.91034335 2.64427444 21.84375 4.234375 C24.36044135 6.44601285 24.47916817 7.8010531 24.90625 11.046875 C25.56625 11.376875 26.22625 11.706875 26.90625 12.046875 C25.58625 12.376875 24.26625 12.706875 22.90625 13.046875 C22.90625 12.386875 22.90625 11.726875 22.90625 11.046875 C22.31610107 11.03229248 21.72595215 11.01770996 21.11791992 11.00268555 C18.44253771 10.92818656 15.76840108 10.83153505 13.09375 10.734375 C12.16498047 10.71181641 11.23621094 10.68925781 10.27929688 10.66601562 C9.38662109 10.63056641 8.49394531 10.59511719 7.57421875 10.55859375 C6.34094849 10.51931763 6.34094849 10.51931763 5.08276367 10.47924805 C2.45169972 9.95657679 1.68782276 8.97847494 -0.09375 7.046875 C-2.91969567 6.77117298 -4.54507831 6.77253916 -7.09375 8.046875 C-8.41375 8.046875 -9.73375 8.046875 -11.09375 8.046875 C-11.42375 8.706875 -11.75375 9.366875 -12.09375 10.046875 C-12.898125 10.315 -13.7025 10.583125 -14.53125 10.859375 C-15.376875 11.25125 -16.2225 11.643125 -17.09375 12.046875 C-17.34511719 12.8203125 -17.59648437 13.59375 -17.85546875 14.390625 C-19.59129468 18.11416327 -21.83885803 18.91942902 -25.46875 20.734375 C-27.18191406 21.60642578 -27.18191406 21.60642578 -28.9296875 22.49609375 C-29.97382813 23.00785156 -31.01796875 23.51960938 -32.09375 24.046875 C-32.89039063 24.44519531 -33.68703125 24.84351563 -34.5078125 25.25390625 C-35.29285156 25.64642578 -35.29285156 25.64642578 -36.09375 26.046875 C-37.09375 25.046875 -37.09375 25.046875 -37.46875 21.796875 C-37.09375 18.046875 -37.09375 18.046875 -35.15625 15.171875 C-31.17176733 12.40713192 -27.85279718 12.16092624 -23.09375 12.046875 C-22.990625 11.28375 -22.8875 10.520625 -22.78125 9.734375 C-21.74143683 5.6696508 -21.74143683 5.6696508 -19.09375 4.046875 C-14.13213948 3.64674512 -10.61568161 3.7859092 -6.09375 6.046875 C-5.660625 5.11875 -5.660625 5.11875 -5.21875 4.171875 C-3.04621557 0.06819886 -3.04621557 0.06819886 0 0 Z " fill="#5FA83F" transform="translate(238.09375,203.953125)"/>
<path d="M0 0 C1.875 0.3125 1.875 0.3125 4 1 C6.33817582 4.50726374 6.61938462 7.48969165 7.0625 11.5625 C7.4731575 16.42783869 7.4731575 16.42783869 9 21 C9.99 15.39 10.98 9.78 12 4 C13.32 3.67 14.64 3.34 16 3 C16.94704859 6.03652785 16.99775853 8.09632713 16.328125 11.1953125 C16.15958008 11.9896167 15.99103516 12.7839209 15.81738281 13.60229492 C15.63014648 14.4347876 15.44291016 15.26728027 15.25 16.125 C14.9730127 17.39790894 14.9730127 17.39790894 14.69042969 18.6965332 C13.39263852 24.54836101 11.9274791 30.3197775 10 36 C8.35 35.67 6.7 35.34 5 35 C4.01 28.73 3.02 22.46 2 16 C1.05453691 20.84581465 1.05453691 20.84581465 0.11547852 25.69287109 C-0.88888889 30.77777778 -0.88888889 30.77777778 -2 33 C-3.65 33 -5.3 33 -7 33 C-6.67938 25.86620489 -5.50861664 18.97744668 -4.0625 12 C-3.89266602 11.16299561 -3.72283203 10.32599121 -3.54785156 9.46362305 C-3.37866211 8.67125244 -3.20947266 7.87888184 -3.03515625 7.0625 C-2.8844165 6.35222656 -2.73367676 5.64195312 -2.57836914 4.91015625 C-2 3 -2 3 0 0 Z " fill="#59381F" transform="translate(209,372)"/>
<path d="M0 0 C2.3125 -0.25 2.3125 -0.25 5 0 C11.74536832 6.9933598 10.19947721 20.05121744 10.0703125 29.17578125 C10.04710937 30.10777344 10.02390625 31.03976562 10 32 C8.0625 32.5625 8.0625 32.5625 6 33 C5 32 5 32 4.9375 28.4375 C4.958125 27.303125 4.97875 26.16875 5 25 C2.69 25 0.38 25 -2 25 C-2.12375 25.94875 -2.2475 26.8975 -2.375 27.875 C-3 31 -3 31 -5 33 C-7.125 32.625 -7.125 32.625 -9 32 C-9.27426189 26.27097377 -8.32631097 21.49404293 -6.75 16 C-6.54503906 15.23171875 -6.34007812 14.4634375 -6.12890625 13.671875 C-4.70781785 8.60763269 -2.77958697 4.46634488 0 0 Z " fill="#5A3921" transform="translate(234,377)"/>
<path d="M0 0 C3.0190434 1.75299294 5.41511201 3.83022401 7 7 C6.9140625 9.0234375 6.9140625 9.0234375 6.625 11.375 C6.53476562 12.14585937 6.44453125 12.91671875 6.3515625 13.7109375 C6 16 6 16 5.33984375 18.10546875 C4.7647614 21.31138757 7.25309073 23.40610441 9 26 C9.25 28.875 9.25 28.875 9 31 C6.71533203 31.26464844 6.71533203 31.26464844 4 31 C2.19482422 29.22753906 2.19482422 29.22753906 0.5546875 26.765625 C-0.34830078 25.43917969 -0.34830078 25.43917969 -1.26953125 24.0859375 C-1.88183594 23.15007812 -2.49414062 22.21421875 -3.125 21.25 C-4.35662031 19.42177359 -5.58838594 17.59364506 -6.8203125 15.765625 C-7.35930176 14.94868164 -7.89829102 14.13173828 -8.45361328 13.29003906 C-9.97281068 10.98139263 -9.97281068 10.98139263 -11.70263672 8.83105469 C-13 7 -13 7 -12.9375 4.9375 C-10.36236047 -0.38445503 -5.47209501 -1.15533676 0 0 Z " fill="#5A381F" transform="translate(346,349)"/>
<path d="M0 0 C4.57627119 3.15254237 4.57627119 3.15254237 6 6 C6.37766377 11.00404498 6.11200434 13.99885156 3 18 C-0.01487949 20.82037114 -0.66722334 21 -5 21 C-4.95875 22.051875 -4.9175 23.10375 -4.875 24.1875 C-4.99147875 27.74010173 -5.47208068 29.84866641 -7 33 C-8.65 32.67 -10.3 32.34 -12 32 C-12.25548469 24.46320172 -11.30607024 17.41597416 -10 10 C-9.83242188 9.00355469 -9.66484375 8.00710937 -9.4921875 6.98046875 C-8.56476684 1.83549223 -8.56476684 1.83549223 -8 0 C-5.0233079 -1.48834605 -3.18307201 -0.8113713 0 0 Z " fill="#59381F" transform="translate(276,77)"/>
<path d="M0 0 C2.4375 1.5 2.4375 1.5 4 4 C4.6807995 8.28300443 4.45945333 11.31082001 2 15 C1.01 14.67 0.02 14.34 -1 14 C-1 11.03 -1 8.06 -1 5 C-4.90047662 5.56743957 -4.90047662 5.56743957 -6.4140625 7.63671875 C-10.52679222 14.60182554 -12.27954813 19.8931042 -12 28 C-8.83884224 26.63016497 -8.0072908 26.0109362 -6 23 C-5.97250522 20.93089407 -5.97250522 20.93089407 -6.375 18.8125 C-6.58125 17.554375 -6.7875 16.29625 -7 15 C-1.125 15.875 -1.125 15.875 0 17 C-0.37782108 23.42295833 -2.47811128 27.47811128 -7 32 C-10.00767886 32.33957665 -12.09747814 32.54493987 -15 32 C-18.38101147 29.29519083 -18.91986876 27.5909679 -19.5 23.3125 C-19.06746549 15.14068723 -14.7980461 6.92901321 -9.1875 1.125 C-5.94691224 -0.54158799 -3.58350199 -0.44793775 0 0 Z " fill="#5B3A21" transform="translate(192,365)"/>
<path d="M0 0 C3.29548564 0.56093373 4.70185107 1.01594564 6.9375 3.5 C7.6875 6.6875 7.6875 6.6875 7.9375 9.5 C6.6175 9.5 5.2975 9.5 3.9375 9.5 C3.2775 8.18 2.6175 6.86 1.9375 5.5 C0.9475 5.5 -0.0425 5.5 -1.0625 5.5 C-4.23555652 10.9232719 -3.8719019 17.24367791 -2.38671875 23.21875 C-1.67642988 25.34625031 -0.92173 27.42864197 -0.0625 29.5 C0.9275 29.5 1.9175 29.5 2.9375 29.5 C3.9275 26.035 3.9275 26.035 4.9375 22.5 C5.9275 22.5 6.9175 22.5 7.9375 22.5 C8.24538712 26.42556076 8.24604114 28.8957736 6.4375 32.4375 C3.40477727 34.93949625 1.68611103 35.24200743 -2.1640625 34.984375 C-4.0625 34.5 -4.0625 34.5 -6.4375 32.375 C-10.79338461 24.66843492 -11.09893606 16.68218032 -9.375 8.0625 C-7.13745983 3.69396919 -4.98881858 0.81450099 0 0 Z " fill="#5D3C23" transform="translate(244.0625,74.5)"/>
<path d="M0 0 C2.86724686 0.57344937 3.8614515 0.8614515 6 3 C8.20250992 3.46006346 8.20250992 3.46006346 10.625 3.625 C11.44226563 3.69976562 12.25953125 3.77453125 13.1015625 3.8515625 C13.72804688 3.90054687 14.35453125 3.94953125 15 4 C14.690625 5.794375 14.690625 5.794375 14.375 7.625 C13.86418162 11.5576018 14.43265283 14.3121243 16 18 C15.2575 18.144375 14.515 18.28875 13.75 18.4375 C12.8425 18.623125 11.935 18.80875 11 19 C10.319375 19.12375 9.63875 19.2475 8.9375 19.375 C6.55173847 20.14460049 4.97712218 21.48420633 3 23 C2.34 23 1.68 23 1 23 C0.67 20.69 0.34 18.38 0 16 C-0.78375 15.690625 -1.5675 15.38125 -2.375 15.0625 C-5 14 -5 14 -7 13 C-5.63016497 9.83884224 -5.0109362 9.0072908 -2 7 C-0.7811879 3.44327821 -0.7811879 3.44327821 0 0 Z " fill="#58371E" transform="translate(93,300)"/>
<path d="M0 0 C0.99 0.33 1.98 0.66 3 1 C3.3403125 1.928125 3.3403125 1.928125 3.6875 2.875 C5.78906903 6.27754033 9.30182762 6.86474708 13 8 C11.125 11.875 11.125 11.875 10 13 C9.76807135 14.51469448 9.58784762 16.03754562 9.4375 17.5625 C9.35371094 18.38878906 9.26992187 19.21507812 9.18359375 20.06640625 C9.09271484 21.02353516 9.09271484 21.02353516 9 22 C8.33613281 21.91621094 7.67226562 21.83242187 6.98828125 21.74609375 C0.45279152 20.94574958 0.45279152 20.94574958 -6 22 C-6.0825 20.7625 -6.165 19.525 -6.25 18.25 C-6.63475459 15.01117036 -6.90024003 14.12092117 -9.0625 11.5 C-9.701875 11.005 -10.34125 10.51 -11 10 C-10.67 9.01 -10.34 8.02 -10 7 C-9.0925 6.95875 -8.185 6.9175 -7.25 6.875 C-3.72005826 6.27535611 -3.72005826 6.27535611 -1.625 2.9375 C-1.08875 1.968125 -0.5525 0.99875 0 0 Z " fill="#57361C" transform="translate(98,165)"/>
<path d="M0 0 C2.375 1.8125 2.375 1.8125 4 4 C4 4.99 4 5.98 4 7 C0.85262818 6.30058404 -2.02588876 5.23921302 -5 4 C-5.76411867 12.97839433 -1.62705663 20.21867535 4 27 C4.99 27 5.98 27 7 27 C7.33 24.03 7.66 21.06 8 18 C11 19 11 19 12 21 C12.49512681 25.37362014 12.49223866 27.31955244 9.875 30.9375 C7 33 7 33 4 33.625 C-1.40975752 32.49796718 -3.802415 28.45761487 -6.6875 24.0625 C-10.26537126 18.03187423 -12.25658236 12.04722476 -11 5 C-7.90494929 0.53948574 -5.42331926 -1.03850794 0 0 Z " fill="#59371E" transform="translate(323,361)"/>
<path d="M0 0 C2.46800047 1.15173355 4.04783565 2.04783565 6 4 C7.94151362 4.38403123 7.94151362 4.38403123 10.0625 4.5 C12.0115625 4.7475 12.0115625 4.7475 14 5 C14.33 5.66 14.66 6.32 15 7 C14.68289063 7.60328125 14.36578125 8.2065625 14.0390625 8.828125 C12.77860283 11.46277002 12.95447286 12.89041545 13.375 15.75 C13.54128906 16.94882813 13.54128906 16.94882813 13.7109375 18.171875 C13.80632812 18.77515625 13.90171875 19.3784375 14 20 C13.38511719 19.96519531 12.77023437 19.93039063 12.13671875 19.89453125 C11.32847656 19.86746094 10.52023437 19.84039062 9.6875 19.8125 C8.88699219 19.77769531 8.08648437 19.74289063 7.26171875 19.70703125 C4.47940234 20.06743493 3.86786105 21.00656846 2 23 C1.01 23 0.02 23 -1 23 C-1.226875 21.906875 -1.45375 20.81375 -1.6875 19.6875 C-3.19112931 15.46301765 -4.19309753 15.00363288 -8 13 C-8 12.01 -8 11.02 -8 10 C-7.05125 9.835 -6.1025 9.67 -5.125 9.5 C-1.91873588 8.37777898 -1.91873588 8.37777898 -1.15625 6.0859375 C-0.67381375 4.07815136 -0.32880438 2.03858716 0 0 Z " fill="#57351C" transform="translate(407,165)"/>
<path d="M0 0 C0.99 0 1.98 0 3 0 C3.20625 1.11375 3.4125 2.2275 3.625 3.375 C4.61628301 7.26599195 4.61628301 7.26599195 8.125 8.4375 C9.07375 8.623125 10.0225 8.80875 11 9 C11 9.99 11 10.98 11 12 C10.360625 12.4125 9.72125 12.825 9.0625 13.25 C6.09095631 15.77130979 6.4169751 18.24722411 6 22 C5.34 22.33 4.68 22.66 4 23 C3.525625 22.505 3.05125 22.01 2.5625 21.5 C-1.20358351 19.29546331 -4.73459379 19.75391887 -9 20 C-8.93489583 18.01432292 -8.86979167 16.02864583 -8.8046875 14.04296875 C-8.86745538 11.68640281 -8.86745538 11.68640281 -11 9 C-11 7.68 -11 6.36 -11 5 C-9.1128125 4.87625 -9.1128125 4.87625 -7.1875 4.75 C-3.69859456 4.3774397 -3.69859456 4.3774397 -1.1875 1.9375 C-0.795625 1.298125 -0.40375 0.65875 0 0 Z " fill="#55331A" transform="translate(412,300)"/>
<path d="M0 0 C-0.33 1.32 -0.66 2.64 -1 4 C-2.65 4.33 -4.3 4.66 -6 5 C-5.67515625 5.93972656 -5.67515625 5.93972656 -5.34375 6.8984375 C-5.0653125 7.71570313 -4.786875 8.53296875 -4.5 9.375 C-4.08234375 10.59316406 -4.08234375 10.59316406 -3.65625 11.8359375 C-3 14 -3 14 -3 16 C0.465 15.505 0.465 15.505 4 15 C4 15.99 4 16.98 4 18 C2.35 18.33 0.7 18.66 -1 19 C-0.01 21.97 0.98 24.94 2 28 C4.64 28 7.28 28 10 28 C9.8125 29.875 9.8125 29.875 9 32 C5.71085598 33.82730223 2.72576602 34.66872724 -1 34 C-4.63660398 30.18883902 -6.41635368 26.17194623 -8.1875 21.3125 C-8.44869629 20.60931641 -8.70989258 19.90613281 -8.97900391 19.18164062 C-10.88609812 13.82951255 -11.97254287 8.71108374 -12 3 C-7.77050005 0.58314288 -4.87664009 -0.34833144 0 0 Z " fill="#5A3920" transform="translate(306,368)"/>
<path d="M0 0 C-0.62759865 2.92879371 -1.58622659 5.36095629 -3 8 C-2.34 8.78375 -1.68 9.5675 -1 10.375 C1 13 1 13 1 15 C1.763125 14.505 2.52625 14.01 3.3125 13.5 C6 12 6 12 9 12 C8.67 13.65 8.34 15.3 8 17 C7.34 17 6.68 17 6 17 C7.24976756 20.65316671 7.67098753 21.78065836 11 24 C13.48051222 23.73740217 13.48051222 23.73740217 16 23 C16.763125 22.814375 17.52625 22.62875 18.3125 22.4375 C18.869375 22.293125 19.42625 22.14875 20 22 C19.75206292 25.34715058 18.696823 26.31727825 16.3125 28.8125 C13 31 13 31 10.171875 31.01953125 C5.85359692 29.6315133 3.84399024 27.25027899 0.9375 23.875 C0.43412109 23.318125 -0.06925781 22.76125 -0.58789062 22.1875 C-9.87429912 11.75981232 -9.87429912 11.75981232 -10.1875 7.375 C-8.09322614 3.18645227 -4.87500924 0 0 0 Z " fill="#59381F" transform="translate(358,336)"/>
<path d="M0 0 C0 1.32 0 2.64 0 4 C-1.98 4.33 -3.96 4.66 -6 5 C-5.835 5.515625 -5.67 6.03125 -5.5 6.5625 C-4.84951 9.73363876 -4.9379266 12.77218334 -5 16 C-2.69 16 -0.38 16 2 16 C1.67 17.32 1.34 18.64 1 20 C-0.65 20 -2.3 20 -4 20 C-3.01 22.97 -2.02 25.94 -1 29 C1.31 29 3.62 29 6 29 C6 30.32 6 31.64 6 33 C4.34763915 34.65236085 2.45786456 34.32780449 0.1875 34.4375 C-0.68519531 34.49808594 -1.55789062 34.55867188 -2.45703125 34.62109375 C-5 34 -5 34 -7.2109375 31.6328125 C-9.77319724 27.24786761 -10.20290476 22.40036298 -10.8125 17.4375 C-10.94591797 16.50486328 -11.07933594 15.57222656 -11.21679688 14.61132812 C-11.82110063 10.07743421 -12.07614929 6.49086336 -11 2 C-7.17679443 0.57741188 -4.08718695 -0.24042276 0 0 Z " fill="#59381F" transform="translate(226,77)"/>
<path d="M0 0 C3.30669336 2.73692466 4.86780532 6.39995179 6.6875 10.1875 C7.00783203 10.84169922 7.32816406 11.49589844 7.65820312 12.16992188 C8.44428292 13.77727907 9.22288683 15.38828858 10 17 C11.155 16.731875 12.31 16.46375 13.5 16.1875 C15.33310545 15.79061268 17.1664761 15.39494967 19 15 C20.15242188 14.73574219 21.30484375 14.47148437 22.4921875 14.19921875 C33.09111105 11.94934665 43.18823731 11.68269827 54 12 C54 12.66 54 13.32 54 14 C52.8140625 14.03738281 51.628125 14.07476562 50.40625 14.11328125 C22.4993361 15.1666461 -8.01775426 22.36085676 -29 42 C-35.44512468 49.2976544 -39.97261501 58.23984261 -41 68 C-41.66 68 -42.32 68 -43 68 C-43.17629656 56.8429463 -37.95422177 47.73806736 -30.4375 39.75 C-21.49526063 31.44072034 -4.86513163 19 8 19 C7.13375 17.31970703 7.13375 17.31970703 6.25 15.60546875 C5.49968395 14.1329735 4.74970125 12.66030836 4 11.1875 C3.42765625 10.08051758 3.42765625 10.08051758 2.84375 8.95117188 C2.30234375 7.88286133 2.30234375 7.88286133 1.75 6.79296875 C1.41484375 6.1383667 1.0796875 5.48376465 0.734375 4.80932617 C0 3 0 3 0 0 Z " fill="#683C1D" transform="translate(214,181)"/>
<path d="M0 0 C3.82980967 1.43130763 7.28426601 3.20256375 10.83203125 5.23046875 C11.95367676 5.86581543 13.07532227 6.50116211 14.23095703 7.15576172 C14.81669495 7.4883197 15.40243286 7.82087769 16.00592041 8.16351318 C25.58176029 13.59119201 35.13764989 18.7507637 45.3515625 22.8984375 C48 24 48 24 49 25 C51.31952569 25.28101946 53.63885514 25.44782625 55.96875 25.62109375 C56.97421875 25.80865234 56.97421875 25.80865234 58 26 C58.495 26.99 58.495 26.99 59 28 C59.66 28 60.32 28 61 28 C61.41419189 28.442229 61.82838379 28.88445801 62.25512695 29.34008789 C64.57917296 31.55097201 66.93726021 32.38350022 69.91796875 33.55859375 C71.09037109 34.02716797 72.26277344 34.49574219 73.47070312 34.97851562 C74.69724609 35.45998047 75.92378906 35.94144531 77.1875 36.4375 C84.60917074 39.3736762 91.93351837 42.277557 99 46 C99 46.66 99 47.32 99 48 C94.90469268 46.67419481 90.91353647 45.20357597 86.9296875 43.57421875 C85.785 43.10693359 84.6403125 42.63964844 83.4609375 42.15820312 C82.27757812 41.67287109 81.09421875 41.18753906 79.875 40.6875 C78.71484375 40.21376953 77.5546875 39.74003906 76.359375 39.25195312 C68.89305034 36.19944567 61.44164438 33.1121613 54 30 C54 29.34 54 28.68 54 28 C53.10925781 27.95617187 52.21851563 27.91234375 51.30078125 27.8671875 C45.15328607 26.97597802 39.70275585 23.832915 34.1875 21.125 C33.59405792 20.83643127 33.00061584 20.54786255 32.38919067 20.25054932 C24.55668191 16.43589168 16.88160328 12.41092265 9.4375 7.875 C8.70104248 7.42656738 7.96458496 6.97813477 7.20581055 6.51611328 C4.08365834 4.5492667 2.07180588 3.10770882 0 0 Z " fill="#6A3F1F" transform="translate(175,254)"/>
<path d="M0 0 C1.2065625 0.0309375 1.2065625 0.0309375 2.4375 0.0625 C2.46255615 0.72781738 2.4876123 1.39313477 2.51342773 2.07861328 C2.63001136 5.11507487 2.75245351 8.15127346 2.875 11.1875 C2.91431641 12.23421875 2.95363281 13.2809375 2.99414062 14.359375 C3.19881096 19.33443842 3.43026207 24.17020149 4.4375 29.0625 C6.0875 29.0625 7.7375 29.0625 9.4375 29.0625 C9.4375 30.3825 9.4375 31.7025 9.4375 33.0625 C2.1402027 33.54898649 2.1402027 33.54898649 -1 31.375 C-3.68163789 27.40617593 -3.68963417 23.26517984 -3.6953125 18.578125 C-3.69660156 17.56105469 -3.69789063 16.54398437 -3.69921875 15.49609375 C-3.69535156 14.44550781 -3.69148437 13.39492188 -3.6875 12.3125 C-3.69136719 11.24644531 -3.69523438 10.18039062 -3.69921875 9.08203125 C-3.69792969 8.07011719 -3.69664062 7.05820312 -3.6953125 6.015625 C-3.69418457 5.08911133 -3.69305664 4.16259766 -3.69189453 3.20800781 C-3.50152055 0.05139172 -3.18534692 0.07769139 0 0 Z " fill="#5C3B23" transform="translate(251.5625,377.9375)"/>
<path d="M0 0 C0.66 0 1.32 0 2 0 C1.566875 1.52753906 1.566875 1.52753906 1.125 3.0859375 C-5.22164179 26.72696633 -0.81087645 46.44207184 8.13330078 68.77783203 C9.19006284 71.48731041 10.12149917 74.22794298 11 77 C10.34 77 9.68 77 9 77 C4.00692863 67.10058554 -0.10343098 57.42271234 -2.9921875 46.70703125 C-3.88509003 43.4226727 -4.88959319 40.21617829 -6 37 C-6.66 37.99 -7.32 38.98 -8 40 C-7.01 40 -6.02 40 -5 40 C-5 41.32 -5 42.64 -5 44 C-5.66 44 -6.32 44 -7 44 C-7 43.01 -7 42.02 -7 41 C-7.66 41 -8.32 41 -9 41 C-9.84098656 36.98195309 -10.05404945 33.98196457 -9 30 C-7.68 30.33 -6.36 30.66 -5 31 C-5.03480469 29.97261719 -5.06960937 28.94523437 -5.10546875 27.88671875 C-5.33990292 17.89547285 -4.76425629 9.03137279 0 0 Z " fill="#694421" transform="translate(149,199)"/>
<path d="M0 0 C1.17369141 0.16435547 1.17369141 0.16435547 2.37109375 0.33203125 C3.15613281 0.42871094 3.94117188 0.52539062 4.75 0.625 C6.80859375 1.14453125 6.80859375 1.14453125 8.80859375 3.14453125 C8.80859375 3.47453125 8.80859375 3.80453125 8.80859375 4.14453125 C9.46859375 3.81453125 10.12859375 3.48453125 10.80859375 3.14453125 C15.04151105 2.8669629 17.8126871 2.74193069 21.74609375 4.33203125 C24.2627851 6.5436691 24.38151192 7.89870935 24.80859375 11.14453125 C25.46859375 11.47453125 26.12859375 11.80453125 26.80859375 12.14453125 C25.48859375 12.47453125 24.16859375 12.80453125 22.80859375 13.14453125 C22.80859375 12.48453125 22.80859375 11.82453125 22.80859375 11.14453125 C22.21844482 11.12994873 21.6282959 11.11536621 21.02026367 11.1003418 C18.34488146 11.02584281 15.67074483 10.9291913 12.99609375 10.83203125 C12.06732422 10.80947266 11.13855469 10.78691406 10.18164062 10.76367188 C9.28896484 10.72822266 8.39628906 10.69277344 7.4765625 10.65625 C6.24329224 10.61697388 6.24329224 10.61697388 4.98510742 10.5769043 C2.3485789 10.05314748 1.62158225 9.05060641 -0.19140625 7.14453125 C-3.31689642 6.89404489 -3.31689642 6.89404489 -6.19140625 7.14453125 C-5.519477 3.24734161 -4.30494411 0.28392679 0 0 Z " fill="#5BAC3F" transform="translate(238.19140625,203.85546875)"/>
<path d="M0 0 C0.83693254 2.8565961 1.24389072 4.4224178 0.06640625 7.2109375 C-3.58443739 12.46435926 -7.51763097 17.54854905 -13 21 C-14.32 21 -15.64 21 -17 21 C-17.79586515 15.770029 -16.81126305 13.19380966 -13.8125 8.8125 C-6.57747268 -0.75171116 -6.57747268 -0.75171116 0 0 Z " fill="#F8F6F5" transform="translate(149,344)"/>
<path d="M0 0 C1.87841797 0.16455078 1.87841797 0.16455078 4 1 C5.52392578 2.90185547 5.52392578 2.90185547 6.9453125 5.3671875 C7.46480469 6.25277344 7.98429687 7.13835937 8.51953125 8.05078125 C9.31423828 9.44876953 9.31423828 9.44876953 10.125 10.875 C11.18982735 12.70589019 12.25492034 14.53662591 13.3203125 16.3671875 C13.78711426 17.18300293 14.25391602 17.99881836 14.73486328 18.83935547 C15.76343462 20.59598541 16.87084678 22.30627017 18 24 C18.125 26.6875 18.125 26.6875 18 29 C16.68 29.33 15.36 29.66 14 30 C10.21357602 24.52082177 6.62666096 18.91430893 3.125 13.25 C2.71967041 12.61247803 2.31434082 11.97495605 1.89672852 11.31811523 C-0.26960705 7.77071172 -1.63690492 5.19425189 -1 1 C-0.67 0.67 -0.34 0.34 0 0 Z " fill="#59381F" transform="translate(328,356)"/>
<path d="M0 0 C1.32 0.33 2.64 0.66 4 1 C3.67716894 7.02617983 2.42333109 12.39683527 0.625 18.125 C0.41593018 18.79337891 0.20686035 19.46175781 -0.00854492 20.15039062 C-1.43067066 24.5562132 -3.12082788 28.76911541 -5 33 C-6.32 32.67 -7.64 32.34 -9 32 C-9.49744908 25.40419365 -7.69311474 19.97075781 -5.625 13.75 C-5.30789062 12.75742187 -4.99078125 11.76484375 -4.6640625 10.7421875 C-2.28559028 3.42838542 -2.28559028 3.42838542 0 0 Z " fill="#5B3A21" transform="translate(201,370)"/>
<path d="M0 0 C0.598125 0.226875 1.19625 0.45375 1.8125 0.6875 C2.46571996 9.00516752 2.04528584 16.80089543 -3.1875 23.6875 C-5.80078125 24.55078125 -5.80078125 24.55078125 -8.1875 24.6875 C-9.94228582 22.93271418 -9.44278528 20.57245037 -9.5 18.1875 C-9.45182542 11.45108782 -7.90907909 6.23705245 -3.80078125 0.87890625 C-2.1875 -0.3125 -2.1875 -0.3125 0 0 Z " fill="#F9F8F7" transform="translate(299.1875,86.3125)"/>
<path d="M0 0 C1.65 0 3.3 0 5 0 C4.65549186 7.02796597 1.54830686 12.30412103 -1.8125 18.375 C-2.34681641 19.38433594 -2.88113281 20.39367187 -3.43164062 21.43359375 C-3.95564453 22.39136719 -4.47964844 23.34914063 -5.01953125 24.3359375 C-5.49495361 25.20782715 -5.97037598 26.0797168 -6.46020508 26.97802734 C-8 29 -8 29 -10.1237793 29.85400391 C-11.05250854 29.92627197 -11.05250854 29.92627197 -12 30 C-12.33 29.67 -12.66 29.34 -13 29 C-12.85447056 21.92726943 -9.36684217 16.58638448 -5.9375 10.5625 C-5.36966797 9.54478516 -4.80183594 8.52707031 -4.21679688 7.47851562 C-2.82091488 4.98000415 -1.41517646 2.48761736 0 0 Z " fill="#58371E" transform="translate(174,360)"/>
<path d="M0 0 C3.53571429 0.53571429 3.53571429 0.53571429 5 2 C4.93378315 4.78411742 4.80544723 7.53523027 4.625 10.3125 C4.57609619 11.12251465 4.52719238 11.9325293 4.47680664 12.76708984 C4.07920466 19.18597615 3.59018766 25.59583606 3 32 C1.34385343 32.38218767 -0.32457024 32.71395102 -2 33 C-3 32 -3 32 -3.0534668 29.16430664 C-2.86508622 22.38039999 -2.86508622 22.38039999 -2.75805664 19.21704102 C-2.68791585 17.07519846 -2.63355591 14.93333074 -2.58007812 12.79101562 C-2.53742583 11.43486506 -2.49383702 10.07874356 -2.44921875 8.72265625 C-2.41143311 7.48265869 -2.37364746 6.24266113 -2.3347168 4.96508789 C-2 2 -2 2 0 0 Z " fill="#58371E" transform="translate(258,76)"/>
<path d="M0 0 C3.55573784 1.18524595 3.85520446 1.95950618 5.75 5.0625 C10.455163 12.34678938 14.54044484 18.23769627 23 21 C23 21.33 23 21.66 23 22 C24.98 22.33 26.96 22.66 29 23 C28.34 23.99 27.68 24.98 27 26 C41.14751038 35.4860035 56.26199601 38.90714063 73 40 C73 40.66 73 41.32 73 42 C53.00228054 43.10191515 32.39120909 35.53970327 17.22363281 22.46923828 C10.68204765 16.50421788 4.00886831 9.99943128 0 2 C0 1.34 0 0.68 0 0 Z " fill="#673C1D" transform="translate(160,277)"/>
<path d="M0 0 C7.40582012 1.12910286 14.20968149 2.84281738 21.1875 5.5625 C22.09024658 5.91183594 22.99299316 6.26117188 23.9230957 6.62109375 C36.55686364 11.65540983 47.70413632 18.08202142 58 27 C58.63164062 27.47695312 59.26328125 27.95390625 59.9140625 28.4453125 C65.97531433 33.11808373 71.59795316 40.34266727 73 48 C72.34 48 71.68 48 71 48 C69.87086688 46.18564097 68.82235036 44.32085937 67.8125 42.4375 C56.74953341 23.13375218 33.5899374 12.27068105 13 6 C9.75167132 5.19968714 6.50873768 4.44035086 3.23046875 3.7734375 C2.49441406 3.51820313 1.75835937 3.26296875 1 3 C0.67 2.01 0.34 1.02 0 0 Z " fill="#653D1D" transform="translate(262,216)"/>
<path d="M0 0 C6.74641555 0.47756282 12.13066231 1.86239429 18.3125 4.5625 C19.14136719 4.91965088 19.97023438 5.27680176 20.82421875 5.64477539 C38.02286674 13.27801489 53.28708424 25.85123158 64.3125 41.0625 C64.73345947 41.6402417 65.15441895 42.2179834 65.58813477 42.81323242 C68.33222016 46.70975634 70.25411509 50.56466132 72 55 C68.06870829 53.68956943 67.87931894 52.30988726 66 48.6875 C61.94080403 41.46350716 56.76829521 35.89686048 51 30 C50.36964844 29.319375 49.73929687 28.63875 49.08984375 27.9375 C36.1304207 14.2121536 17.64050151 6.62994729 0 1 C0 0.67 0 0.34 0 0 Z " fill="#653A1C" transform="translate(269,194)"/>
<path d="M0 0 C1.32 0.33 2.64 0.66 4 1 C4 4.96 4 8.92 4 13 C1.69 12.34 -0.62 11.68 -3 11 C-2.649375 11.53625 -2.29875 12.0725 -1.9375 12.625 C-0.66264242 15.85463921 -1.03442173 17.68944593 -2 21 C-4.0625 23.375 -4.0625 23.375 -6 25 C-6.99 24.67 -7.98 24.34 -9 24 C-9.60626288 15.81545113 -7.54146632 8.76697071 -2.25 2.375 C-1.13625 1.199375 -1.13625 1.199375 0 0 Z " fill="#F4F1F0" transform="translate(188,369)"/>
<path d="M0 0 C2.32421875 0.16015625 2.32421875 0.16015625 5 1 C6.58203125 3.43359375 6.58203125 3.43359375 7.8125 6.4375 C8.44091797 7.92056641 8.44091797 7.92056641 9.08203125 9.43359375 C10 12 10 12 10 14 C10.66 14 11.32 14 12 14 C12.66 15.98 13.32 17.96 14 20 C8.6638929 19.48326236 4.18590219 18.89660111 0.375 14.875 C-2.60801533 10.84708664 -2.65277892 7.89584193 -2 3 C-1.34 2.01 -0.68 1.02 0 0 Z " fill="#5CA53D" transform="translate(148,262)"/>
<path d="M0 0 C3.22325167 3.53636755 4.09607939 7.45628658 5.125 12 C5.29386719 12.7115625 5.46273438 13.423125 5.63671875 14.15625 C6.09788337 16.10258258 6.54934183 18.05120793 7 20 C7.17869629 20.64235596 7.35739258 21.28471191 7.54150391 21.9465332 C10.80750525 36.57397584 8.92635908 57.3079994 1 70 C0.01 69.67 -0.98 69.34 -2 69 C-1.34 69 -0.68 69 0 69 C6.85592355 50.30202669 7.04707563 29.98303995 1.97265625 10.8125 C1.0447096 7.17524725 0.4596838 3.71618062 0 0 Z " fill="#714E33" transform="translate(335,265)"/>
<path d="M0 0 C2.31 0.33 4.62 0.66 7 1 C7.33 1.99 7.66 2.98 8 4 C9.66289062 3.98259766 9.66289062 3.98259766 11.359375 3.96484375 C12.82291498 3.95546208 14.28645678 3.94636229 15.75 3.9375 C16.47960937 3.92912109 17.20921875 3.92074219 17.9609375 3.91210938 C21.48670558 3.89608316 24.61034916 4.04707287 28 5 C28 5.66 28 6.32 28 7 C27.40574219 6.99476318 26.81148438 6.98952637 26.19921875 6.98413086 C23.4661569 6.96314409 20.7331121 6.95027155 18 6.9375 C17.06542969 6.92912109 16.13085938 6.92074219 15.16796875 6.91210938 C9.67057185 6.89288771 4.44140929 7.23215669 -1 8 C-3 8 -5 8 -7 8 C-9.26566343 8.43941523 -9.26566343 8.43941523 -11 9 C-10.67 8.01 -10.34 7.02 -10 6 C-8.68 6 -7.36 6 -6 6 C-6 5.01 -6 4.02 -6 3 C-3.03 3.495 -3.03 3.495 0 4 C0 2.68 0 1.36 0 0 Z " fill="#623D1C" transform="translate(233,210)"/>
<path d="M0 0 C0.66 0.33 1.32 0.66 2 1 C1.3709375 1.7528125 0.741875 2.505625 0.09375 3.28125 C-6.6831331 11.61476906 -11.52262027 20.25732177 -16 30 C-18.01275953 26.9808607 -18.67024547 25.54486124 -19 22 C-18.07909718 18.16290492 -17.19656257 15.39742193 -14 13 C-12.63875 12.443125 -12.63875 12.443125 -11.25 11.875 C-6.60406246 9.19465142 -4.10227115 5.29019316 -1 1 C-0.67 0.67 -0.34 0.34 0 0 Z " fill="#654428" transform="translate(170,162)"/>
<path d="M0 0 C2.5625 -0.5625 2.5625 -0.5625 6 0 C7.91519593 1.97111406 9.41727007 4.10977151 11.01171875 6.34765625 C15.9088493 12.88037067 21.90836786 18.89431824 29 23 C28.34 23.33 27.68 23.66 27 24 C16.09375961 18.5847487 6.74934653 10.06914706 0 0 Z " fill="#EEA561" transform="translate(157,282)"/>
<path d="M0 0 C2.87255066 2.42195448 3.70838919 4.59742703 4.6875 8.1875 C5.06455078 9.53908203 5.06455078 9.53908203 5.44921875 10.91796875 C5.63097656 11.60503906 5.81273437 12.29210937 6 13 C5.01 13.495 5.01 13.495 4 14 C-0.5073867 12.41406764 -4.09272132 10.953899 -7 7 C-7.25 4.25 -7.25 4.25 -7 2 C-4.69 1.34 -2.38 0.68 0 0 Z " fill="#5CAC40" transform="translate(146,249)"/>
<path d="M0 0 C0 0.66 0 1.32 0 2 C-3.3 2 -6.6 2 -10 2 C-9.34 3.32 -8.68 4.64 -8 6 C-8 8.0625 -8 8.0625 -9 10 C-12.0625 11.75 -12.0625 11.75 -15 13 C-16 12 -16 12 -16.375 8.75 C-16 5 -16 5 -14.1875 2.0625 C-9.55316252 -0.93618896 -5.37184048 -0.42334995 0 0 Z " fill="#618433" transform="translate(217,217)"/>
<path d="M0 0 C3.18970398 1.73983854 5.44695493 3.44695493 8 6 C8.928125 5.979375 9.85625 5.95875 10.8125 5.9375 C14.45071224 6.00883749 16.07055521 6.93215662 19 9 C18.67 9.99 18.34 10.98 18 12 C17.34 11.34 16.68 10.68 16 10 C12.07499282 9.2004615 8.82596514 8.62265255 5 10 C4.7525 9.21625 4.505 8.4325 4.25 7.625 C3.22729015 4.99015103 3.22729015 4.99015103 1.375 3.6875 C-2.97139381 2.42933337 -7.2788211 2.31152844 -11.5 4 C-11.995 4.33 -12.49 4.66 -13 5 C-10.29657103 -0.98616415 -6.1119739 -0.77041688 0 0 Z " fill="#613B1C" transform="translate(258,205)"/>
<path d="M0 0 C2.76255451 2.76255451 3.21121057 5.95105806 4.1875 9.625 C6.15134306 16.7105214 8.68062171 23.3259941 11.7644043 29.99658203 C14 34.83737539 14 34.83737539 14 37 C13.34 37 12.68 37 12 37 C-0.43433754 12.07096406 -0.43433754 12.07096406 0 0 Z " fill="#66411F" transform="translate(146,239)"/>
<path d="M0 0 C2.97 0.495 2.97 0.495 6 1 C8.16551116 4.24826674 8.55156953 5.23094157 8 9 C6.125 11.3125 6.125 11.3125 4 13 C3.34 13 2.68 13 2 13 C1.34 8.71 0.68 4.42 0 0 Z " fill="#EFECEA" transform="translate(281,378)"/>
<path d="M0 0 C1.40457737 2.80915474 1.24895157 4.88810534 1 8 C-0.5 10.375 -0.5 10.375 -2 12 C-3.9375 11.375 -3.9375 11.375 -6 10 C-6.75 6.875 -6.75 6.875 -7 4 C-2.25 0 -2.25 0 0 0 Z " fill="#619F43" transform="translate(152,187)"/>
<path d="M0 0 C5.75 0.75 5.75 0.75 8 3 C8.37252607 6.42723983 8.36781772 8.36467848 6.625 11.375 C6.08875 11.91125 5.5525 12.4475 5 13 C4.34 13 3.68 13 3 13 C2.49242138 11.58603098 1.99425075 10.16868271 1.5 8.75 C1.08234375 7.56664063 1.08234375 7.56664063 0.65625 6.359375 C0 4 0 4 0 0 Z " fill="#F2EFED" transform="translate(198,87)"/>
<path d="M0 0 C0.99 0.33 1.98 0.66 3 1 C3.75 3.75 3.75 3.75 4 7 C2.4375 9.375 2.4375 9.375 0 11 C-3.25 11.25 -3.25 11.25 -6 11 C-4.54955729 6.89041233 -2.48889248 3.56741255 0 0 Z " fill="#F3F1F0" transform="translate(161,355)"/>
<path d="M0 0 C2.35119399 3.52679099 2.21443452 5.02879485 2.125 9.1875 C2.10695312 10.27417969 2.08890625 11.36085938 2.0703125 12.48046875 C2.03550781 13.72763672 2.03550781 13.72763672 2 15 C0.02 15 -1.96 15 -4 15 C-3.52396226 12.87429688 -3.04407402 10.74945573 -2.5625 8.625 C-2.29566406 7.44164062 -2.02882812 6.25828125 -1.75390625 5.0390625 C-1 2 -1 2 0 0 Z " fill="#EDE9E7" transform="translate(237,383)"/>
<path d="M0 0 C3.05972961 3.43671635 4.12602676 7.12168153 5.1875 11.5 C5.3618457 12.20253906 5.53619141 12.90507812 5.71582031 13.62890625 C7.14273572 19.78335155 7.43015295 25.69109005 7 32 C6.67 32 6.34 32 6 32 C5.88930176 31.35973877 5.77860352 30.71947754 5.66455078 30.05981445 C5.15698592 27.14303302 4.64107714 24.22778683 4.125 21.3125 C3.86396484 19.80139648 3.86396484 19.80139648 3.59765625 18.25976562 C3.33662109 16.79506836 3.33662109 16.79506836 3.0703125 15.30078125 C2.91320801 14.40528564 2.75610352 13.50979004 2.59423828 12.5871582 C1.98010361 9.91337632 1.0198694 7.54120547 0 5 C-0.125 2.1875 -0.125 2.1875 0 0 Z " fill="#6B3F1F" transform="translate(335,265)"/>
<path d="M0 0 C3 1 3 1 4 3 C4.4069579 6.74401272 4.49904726 8.36787347 2.125 11.375 C0 13 0 13 -2 13 C-1.85966889 11.02043559 -1.7125877 9.04134859 -1.5625 7.0625 C-1.48128906 5.96035156 -1.40007812 4.85820313 -1.31640625 3.72265625 C-1 1 -1 1 0 0 Z " fill="#EFECEA" transform="translate(274,81)"/>
<path d="M0 0 C3.375 0.3125 3.375 0.3125 7 1 C9.29013653 4.4352048 9.17842973 5.985331 9 10 C8.01 10 7.02 10 6 10 C4.39453125 8.3203125 4.39453125 8.3203125 2.8125 6.125 C2.01779297 5.04605469 2.01779297 5.04605469 1.20703125 3.9453125 C0 2 0 2 0 0 Z " fill="#F1EEEC" transform="translate(340,353)"/>
<path d="M0 0 C0.66 0.33 1.32 0.66 2 1 C0.99088542 2.72526042 -0.01822917 4.45052083 -1.02734375 6.17578125 C-2.13901247 8.13819555 -2.13901247 8.13819555 -3 11 C-3.33 11.66 -3.66 12.32 -4 13 C-4.66 13 -5.32 13 -6 13 C-6 12.34 -6 11.68 -6 11 C-6.66 10.67 -7.32 10.34 -8 10 C-6.07517084 3.33712984 -6.07517084 3.33712984 -3 1 C-2.01 0.67 -1.02 0.34 0 0 Z " fill="#6AA34E" transform="translate(159,174)"/>
<path d="M0 0 C8.25 0.33 16.5 0.66 25 1 C25 1.66 25 2.32 25 3 C22.33305052 3.05455124 19.66724502 3.09393392 17 3.125 C15.88431641 3.15013672 15.88431641 3.15013672 14.74609375 3.17578125 C9.49451557 3.22144715 5.0483054 2.45712451 0 1 C0 0.67 0 0.34 0 0 Z " fill="#F4E3D7" transform="translate(222,312)"/>
<path d="M0 0 C1.98 0.495 1.98 0.495 4 1 C4.33 3.31 4.66 5.62 5 8 C4.01 8 3.02 8 2 8 C1.67 8.66 1.34 9.32 1 10 C1.99 10 2.98 10 4 10 C4 11.32 4 12.64 4 14 C3.34 14 2.68 14 2 14 C2 13.01 2 12.02 2 11 C1.34 11 0.68 11 0 11 C-0.84098656 6.98195309 -1.05404945 3.98196457 0 0 Z " fill="#5E632C" transform="translate(140,229)"/>
<path d="M0 0 C0.66 0.33 1.32 0.66 2 1 C1.67 1.66 1.34 2.32 1 3 C0.34589779 8.90059074 0.34589779 8.90059074 3.1875 13.875 C5.78254396 15.83569988 7.91407655 17.03013834 11 18 C11 18.33 11 18.66 11 19 C7.61030005 18.932206 4.97519057 18.72769101 2.19921875 16.65625 C-0.76157858 13.54705949 -2.37911994 11.10974069 -2.5 6.75 C-2 3 -2 3 0 0 Z " fill="#5E3D1B" transform="translate(148,262)"/>
<path d="M0 0 C3.91074634 1.13205815 7.35293895 2.66897615 10.9375 4.5625 C15.07718792 6.69184023 18.37180777 7.69816138 23 8 C23 8.33 23 8.66 23 9 C16.52126181 10.64334528 12.87533986 9.07601166 7.0625 6.0625 C6.28326172 5.67642578 5.50402344 5.29035156 4.70117188 4.89257812 C2.79281361 3.94425285 0.89524383 2.97427045 -1 2 C-0.67 1.34 -0.34 0.68 0 0 Z " fill="#6F4221" transform="translate(208,272)"/>
<path d="M0 0 C6.37799925 5.41163573 11.83312155 13.6476069 13 22 C12.34 22 11.68 22 11 22 C10.54109375 21.05898437 10.0821875 20.11796875 9.609375 19.1484375 C8.98980228 17.89051714 8.36999823 16.63271069 7.75 15.375 C7.44964844 14.75753906 7.14929688 14.14007813 6.83984375 13.50390625 C5.3117894 10.41528575 3.72311425 7.50363023 1.765625 4.6640625 C0 2 0 2 0 0 Z " fill="#62381B" transform="translate(196,147)"/>
<path d="M0 0 C2.875 1.5 2.875 1.5 5 3 C4.67 3.99 4.34 4.98 4 6 C3.34 5.34 2.68 4.68 2 4 C-1.92500718 3.2004615 -5.17403486 2.62265255 -9 4 C-9 3.01 -9 2.02 -9 1 C-5.69407756 -0.10197415 -3.46771262 -0.27741701 0 0 Z " fill="#684420" transform="translate(272,211)"/>
<path d="M0 0 C2.97 0 5.94 0 9 0 C8.67 0.99 8.34 1.98 8 3 C7.01 2.67 6.02 2.34 5 2 C5 2.66 5 3.32 5 4 C5.99 4.33 6.98 4.66 8 5 C7.34 5.66 6.68 6.32 6 7 C3.5625 5.75 3.5625 5.75 1 4 C0.67 2.68 0.34 1.36 0 0 Z " fill="#6EA240" transform="translate(302,228)"/>
<path d="M0 0 C3.375 0.25 3.375 0.25 7 1 C8.4375 3.0625 8.4375 3.0625 9 5 C6.36 5 3.72 5 1 5 C0.67 3.35 0.34 1.7 0 0 Z " fill="#5F722D" transform="translate(233,210)"/>
<path d="M0 0 C5.23272633 1.63958758 10.15196636 3.38952035 15 6 C15 6.66 15 7.32 15 8 C9.80355921 6.40109514 4.93387858 4.25861997 0 2 C0 1.34 0 0.68 0 0 Z " fill="#64391C" transform="translate(259,294)"/>
<path d="M0 0 C2.125 0.9375 2.125 0.9375 4 2 C3.67 3.32 3.34 4.64 3 6 C1.68 6 0.36 6 -1 6 C-1.33 4.35 -1.66 2.7 -2 1 C-1.34 0.67 -0.68 0.34 0 0 Z " fill="#84522B" transform="translate(313,273)"/>
<path d="M0 0 C0.66 0.66 1.32 1.32 2 2 C1.9765625 4.6015625 1.9765625 4.6015625 1.625 7.625 C1.51414063 8.62789063 1.40328125 9.63078125 1.2890625 10.6640625 C1.19367188 11.43492187 1.09828125 12.20578125 1 13 C0.01 12.34 -0.98 11.68 -2 11 C-1.34 7.37 -0.68 3.74 0 0 Z " fill="#DCD6D0" transform="translate(205,372)"/>
<path d="M0 0 C-1.4258086 3.45195767 -3.09746334 5.1014256 -6.125 7.25 C-7.21167969 8.03117188 -7.21167969 8.03117188 -8.3203125 8.828125 C-8.87460938 9.21484375 -9.42890625 9.6015625 -10 10 C-10 7 -10 7 -8.3203125 5.17578125 C-7.59585938 4.56089844 -6.87140625 3.94601563 -6.125 3.3125 C-5.40570313 2.68988281 -4.68640625 2.06726563 -3.9453125 1.42578125 C-2 0 -2 0 0 0 Z " fill="#6E4120" transform="translate(201,232)"/>
<path d="M0 0 C2.4375 0.375 2.4375 0.375 5 1 C5.33 1.66 5.66 2.32 6 3 C0.555 4.485 0.555 4.485 -5 6 C-4.67 5.01 -4.34 4.02 -4 3 C-2.68 3 -1.36 3 0 3 C0 2.01 0 1.02 0 0 Z " fill="#5CA73D" transform="translate(227,213)"/>
<path d="M0 0 C1.32 0.66 2.64 1.32 4 2 C3.34 3.32 2.68 4.64 2 6 C0.68 5.34 -0.64 4.68 -2 4 C-1.34 2.68 -0.68 1.36 0 0 Z " fill="#794926" transform="translate(161,244)"/>
<path d="M0 0 C-0.33 1.65 -0.66 3.3 -1 5 C-1.66 5 -2.32 5 -3 5 C-3 4.34 -3 3.68 -3 3 C-4.65 3.33 -6.3 3.66 -8 4 C-8 3.34 -8 2.68 -8 2 C-5.09399739 0.74335022 -3.20395416 0 0 0 Z " fill="#F5DFCD" transform="translate(228,226)"/>
<path d="M0 0 C3.63 0.66 7.26 1.32 11 2 C10.34 2.66 9.68 3.32 9 4 C6.27130593 3.96712417 3.7033382 3.43602229 1 3 C0.67 2.01 0.34 1.02 0 0 Z " fill="#6C4A23" transform="translate(262,216)"/>
<path d="M0 0 C0.66 0.33 1.32 0.66 2 1 C1 5 1 5 0 9 C-1.65 9 -3.3 9 -5 9 C-4.01 8.67 -3.02 8.34 -2 8 C-1.855625 6.865625 -1.71125 5.73125 -1.5625 4.5625 C-1 1 -1 1 0 0 Z " fill="#E0A972" transform="translate(147,198)"/>
<path d="M0 0 C3.48624056 0.6456001 6.12498789 1.92360237 9 4 C9 4.99 9 5.98 9 7 C8.34 7 7.68 7 7 7 C6.67 6.34 6.34 5.68 6 5 C5.01 4.67 4.02 4.34 3 4 C3 3.34 3 2.68 3 2 C2.01 2 1.02 2 0 2 C0 1.34 0 0.68 0 0 Z " fill="#5E411D" transform="translate(307,230)"/>
<path d="M0 0 C0.33 0.99 0.66 1.98 1 3 C3.97 3.495 3.97 3.495 7 4 C7 4.33 7 4.66 7 5 C-0.625 6.25 -0.625 6.25 -4 4 C-3.01 3.34 -2.02 2.68 -1 2 C-0.67 1.34 -0.34 0.68 0 0 Z " fill="#6B5025" transform="translate(233,212)"/>
<path d="M0 0 C0.66 0.66 1.32 1.32 2 2 C0.37675914 2.22162329 -1.248721 2.42689803 -2.875 2.625 C-4.23238281 2.79902344 -4.23238281 2.79902344 -5.6171875 2.9765625 C-6.40351563 2.98429688 -7.18984375 2.99203125 -8 3 C-8.66 2.34 -9.32 1.68 -10 1 C-6.61401171 -0.04184255 -3.53318313 -0.23042499 0 0 Z " fill="#764323" transform="translate(247,194)"/>
<path d="M0 0 C0.680625 0.309375 1.36125 0.61875 2.0625 0.9375 C5.36965912 2.13370649 8.51545878 2.59005397 12 3 C12 3.33 12 3.66 12 4 C6.55106131 5.19876651 3.77830905 4.91360308 -1 2 C-0.67 1.34 -0.34 0.68 0 0 Z " fill="#804D29" transform="translate(219,277)"/>
<path d="M0 0 C5.75 1.875 5.75 1.875 8 3 C7.67 3.99 7.34 4.98 7 6 C4.36 4.68 1.72 3.36 -1 2 C-0.67 1.34 -0.34 0.68 0 0 Z " fill="#714121" transform="translate(289,200)"/>
<path d="M0 0 C2.96404505 2.80804268 5.44499019 5.18315774 7 9 C6.01 9.495 6.01 9.495 5 10 C4.16121545 8.71186658 3.32913217 7.41936744 2.5 6.125 C2.0359375 5.40570313 1.571875 4.68640625 1.09375 3.9453125 C0 2 0 2 0 0 Z " fill="#694328" transform="translate(196,147)"/>
<path d="M0 0 C-0.33 0.66 -0.66 1.32 -1 2 C-3.3140622 2.73075648 -5.64828869 3.40138258 -8 4 C-8.66 3.34 -9.32 2.68 -10 2 C-8.71211992 1.46987262 -7.41953322 0.9511671 -6.125 0.4375 C-5.40570313 0.14746094 -4.68640625 -0.14257812 -3.9453125 -0.44140625 C-2 -1 -2 -1 0 0 Z " fill="#F0B785" transform="translate(229,224)"/>
<path d="M0 0 C1.32 0 2.64 0 4 0 C3.34 1.98 2.68 3.96 2 6 C1.34 6 0.68 6 0 6 C-1.125 2.25 -1.125 2.25 0 0 Z " fill="#87542D" transform="translate(178,209)"/>
<path d="M0 0 C0.33 0.99 0.66 1.98 1 3 C-1.05233685 5.2477975 -2.00667261 6.0022242 -5 7 C-3.70700306 4.11562221 -2.34058637 2.12780579 0 0 Z " fill="#EEEBE9" transform="translate(153,353)"/>
<path d="M0 0 C1.65 0 3.3 0 5 0 C5 1.32 5 2.64 5 4 C3.68 4 2.36 4 1 4 C0.67 2.68 0.34 1.36 0 0 Z " fill="#774825" transform="translate(217,252)"/>
<path d="M0 0 C-2.46278801 2.46278801 -4.70676982 2.99771255 -8 4 C-8 3.01 -8 2.02 -8 1 C-3.375 -1.125 -3.375 -1.125 0 0 Z " fill="#EDAD73" transform="translate(225,222)"/>
<path d="M0 0 C0.99 0.33 1.98 0.66 3 1 C2.67 3.31 2.34 5.62 2 8 C1.34 8 0.68 8 0 8 C0 5.36 0 2.72 0 0 Z " fill="#794926" transform="translate(164,209)"/>
<path d="M0 0 C2.35953094 2.35953094 2.49141413 3.77895617 3 7 C2.01 7 1.02 7 0 7 C-0.38133299 5.0085944 -0.71325582 3.00720923 -1 1 C-0.67 0.67 -0.34 0.34 0 0 Z " fill="#EBA462" transform="translate(335,270)"/>
</svg>
